 <svg class="nav-logo twelve-grid-logo" width="146" height="53" viewBox="0 0 146 53" fill="none" xmlns="http://www.w3.org/2000/svg">
                <path d="M52.9204 21.5244C52.2905 20.3313 51.4209 19.4392 50.3115 18.848C49.202 18.2339 47.9219 17.9317 46.4712 17.9416C44.8824 17.9525 43.4687 18.3191 42.2302 19.0414C40.9916 19.7637 40.0199 20.7836 39.315 22.101C38.6332 23.4182 38.2982 24.9403 38.31 26.6673C38.3218 28.3943 38.6776 29.9232 39.3775 31.254C40.1003 32.5617 41.0859 33.5682 42.3342 34.2735C43.5825 34.9788 45.0011 35.3261 46.5899 35.3152C48.7314 35.3006 50.4658 34.69 51.7932 33.4835C53.1205 32.277 53.9269 30.648 54.2122 28.5966L45.1973 28.6582L45.1759 25.5151L58.4046 25.4247L58.4256 28.4988C58.1851 30.3656 57.529 32.0857 56.4575 33.6589C55.4089 35.2319 54.0244 36.4964 52.3039 37.4523C50.6062 38.385 48.7096 38.8585 46.6142 38.8728C44.3576 38.8882 42.2932 38.3842 40.421 37.3607C38.5486 36.3143 37.0534 34.8622 35.9354 33.0046C34.8404 31.1469 34.2848 29.0436 34.2688 26.6949C34.2528 24.3462 34.7795 22.2356 35.849 20.363C36.9415 18.4903 38.4168 17.0295 40.2749 15.9806C42.1559 14.9084 44.2131 14.3647 46.4467 14.3495C49.0027 14.332 51.2751 14.9498 53.264 16.2027C55.2758 17.4324 56.7386 19.1956 57.6524 21.4921L52.9204 21.5244Z" fill="black"></path>
                <path d="M17.1362 33.7075C19.3337 31.7812 21.0615 30.2035 22.3196 28.9745C23.6006 27.7222 24.6626 26.4254 25.5054 25.0841C26.3483 23.7427 26.7652 22.4043 26.756 21.0687C26.7466 19.6871 26.4053 18.6072 25.7322 17.8288C25.0821 17.0503 24.0547 16.6659 22.6501 16.6755C21.2916 16.6847 20.2353 17.1295 19.4814 18.0097C18.7504 18.8667 18.3668 20.0207 18.3307 21.4717L14.5313 21.4976C14.5824 18.8721 15.3516 16.8635 16.8389 15.4717C18.3491 14.0567 20.267 13.3412 22.5927 13.3253C25.1026 13.3082 27.0646 13.9856 28.4786 15.3576C29.9157 16.7294 30.6421 18.5667 30.6579 20.8694C30.6692 22.5273 30.2541 24.1305 29.4127 25.6791C28.5941 27.2045 27.6018 28.5815 26.4358 29.8099C25.2926 31.0152 23.8284 32.4183 22.0432 34.0194L20.4984 35.4116L31.4475 35.3369L31.4699 38.6181L14.6835 38.7328L14.664 35.866L17.1362 33.7075Z" fill="black"></path>
                <path d="M1.6664 17.4135L1.64187 13.8214L8.82616 13.7723L8.99816 38.9519L5.02608 38.979L4.87861 17.3916L1.6664 17.4135Z" fill="black"></path>
                <path d="M75.1896 38.4743L69.5976 28.91L66.5926 28.9305L66.6582 38.5326L62.7207 38.5595L62.5567 14.5543L70.8463 14.4976C72.6884 14.4851 74.2449 14.7968 75.5158 15.4329C76.8096 16.0688 77.7712 16.9258 78.4003 18.0038C79.0524 19.0817 79.383 20.2883 79.3922 21.6239C79.4028 23.1897 78.9521 24.6205 78.0398 25.9163C77.1504 27.1889 75.7632 28.0619 73.8782 28.5353L79.887 38.4422L75.1896 38.4743ZM66.5712 25.7874L70.9232 25.7576C72.3969 25.7476 73.4996 25.3716 74.2315 24.6297C74.9863 23.8877 75.3595 22.8949 75.351 21.6515C75.3425 20.4081 74.9675 19.4435 74.2259 18.7577C73.4842 18.0489 72.3649 17.6996 70.8682 17.7098L66.5162 17.7396L66.5712 25.7874Z" fill="black"></path>
                <path d="M109.543 14.2293C112.099 14.2119 114.336 14.6917 116.254 15.6688C118.195 16.6227 119.69 18.0172 120.739 19.8522C121.81 21.6641 122.354 23.7904 122.371 26.2312C122.388 28.6721 121.873 30.7941 120.826 32.5974C119.802 34.4006 118.326 35.7923 116.398 36.7727C114.494 37.7298 112.263 38.2171 109.707 38.2346L101.867 38.2881L101.703 14.2829L109.543 14.2293ZM109.685 35.0224C112.495 35.0032 114.642 34.2286 116.129 32.6986C117.615 31.1686 118.349 29.022 118.33 26.2588C118.311 23.4726 117.548 21.3017 116.04 19.7461C114.533 18.1906 112.375 17.4224 109.565 17.4415L105.662 17.4682L105.782 35.049L109.685 35.0224Z" fill="black"></path>
                <path d="M135.108 38.3147C133.496 38.3257 132.043 38.0593 130.75 37.5154C129.457 36.9486 128.438 36.1496 127.694 35.1184C126.95 34.0873 126.573 32.8809 126.564 31.4993L130.778 31.4705C130.877 32.5061 131.286 33.3553 132.004 34.0182C132.746 34.6809 133.773 35.0078 135.085 34.9988C136.444 34.9896 137.501 34.66 138.256 34.01C139.012 33.3371 139.386 32.4825 139.379 31.4463C139.373 30.6404 139.127 29.9857 138.64 29.4825C138.176 28.979 137.586 28.5916 136.87 28.3201C136.178 28.0485 135.208 27.7558 133.963 27.4419C132.394 27.0381 131.113 26.6324 130.12 26.2247C129.15 25.7938 128.317 25.1317 127.62 24.2384C126.923 23.345 126.569 22.15 126.559 20.6533C126.55 19.2717 126.887 18.0604 127.57 17.0195C128.254 15.9786 129.216 15.1776 130.456 14.6164C131.695 14.0553 133.132 13.7692 134.767 13.758C137.093 13.7421 138.997 14.3163 140.478 15.4806C141.983 16.6217 142.823 18.2049 142.998 20.2301L138.646 20.2598C138.571 19.3853 138.151 18.6398 137.387 18.0232C136.623 17.4067 135.619 17.1027 134.376 17.1112C133.247 17.1189 132.328 17.413 131.618 17.9936C130.909 18.5741 130.557 19.4055 130.565 20.4878C130.57 21.2246 130.793 21.8333 131.233 22.3139C131.697 22.7713 132.275 23.1358 132.968 23.4074C133.661 23.679 134.607 23.9719 135.806 24.2861C137.398 24.7127 138.691 25.1414 139.684 25.5721C140.7 26.0027 141.557 26.6762 142.254 27.5925C142.974 28.4857 143.339 29.6922 143.349 31.2119C143.358 32.4323 143.032 33.5859 142.371 34.6727C141.734 35.7594 140.784 36.6409 139.522 37.3174C138.283 37.9706 136.812 38.303 135.108 38.3147Z" fill="black"></path>
                <line x1="88.5024" y1="19.5728" x2="88.5024" y2="38.4261" stroke="black" stroke-width="1.72703"></line>
                <line x1="99.7139" y1="19.7698" x2="82.6937" y2="27.8844" stroke="black" stroke-width="1.72703"></line>
                <line x1="100.022" y1="26.4804" x2="83.0013" y2="34.595" stroke="black" stroke-width="1.72703"></line>
                <line x1="94.2593" y1="14.3917" x2="94.2593" y2="33.245" stroke="black" stroke-width="1.72703"></line>
                <circle cx="94.1234" cy="10.0744" r="2.01487" fill="#FED500" data-svg-origin="92.10852813720703 8.059530258178711" transform="matrix(1,0,0,1,0,0)" style="transform-origin: 0px 0px;"></circle>
            </svg>